<svg xmlns="http://www.w3.org/2000/svg" width="34" height="34" fill="none"><path fill="#692EDC" d="M22.936 2.834H11.065c-5.157 0-8.231 3.074-8.231 8.23v11.872c0 5.157 3.074 8.231 8.23 8.231h11.872c5.157 0 8.231-3.074 8.231-8.23V11.064c0-5.157-3.074-8.231-8.23-8.231zm-8.811 18.275-3.188 3.188a1.05 1.05 0 0 1-.75.311c-.27 0-.553-.099-.751-.311l-1.063-1.063a1.044 1.044 0 0 1 0-1.502 1.07 1.07 0 0 1 1.502 0l.312.312 2.436-2.437a1.07 1.07 0 0 1 1.502 0 1.07 1.07 0 0 1 0 1.502zm0-9.917-3.188 3.188a1.05 1.05 0 0 1-.75.311c-.27 0-.553-.099-.751-.311l-1.063-1.063a1.044 1.044 0 0 1 0-1.501 1.069 1.069 0 0 1 1.502 0l.312.311 2.436-2.436a1.069 1.069 0 0 1 1.502 0c.41.41.41 1.09 0 1.501zm10.752 12.354H17.44a1.07 1.07 0 0 1-1.063-1.063c0-.58.482-1.062 1.063-1.062h7.437a1.061 1.061 0 1 1 0 2.125zm0-9.917H17.44a1.07 1.07 0 0 1-1.063-1.063c0-.58.482-1.062 1.063-1.062h7.437a1.062 1.062 0 1 1 0 2.125z"/></svg>