<svg xmlns="http://www.w3.org/2000/svg" width="30" height="30" fill="none"><path fill="#692EDC" d="M20.238 2.5H9.761C5.212 2.5 2.5 5.213 2.5 9.762v10.463c0 4.563 2.713 7.275 7.262 7.275h10.463c4.55 0 7.262-2.712 7.262-7.262V9.761c.013-4.55-2.7-7.262-7.25-7.262zm-6.55 19.387c-.363.363-1.05.713-1.55.788l-3.075.438a3.219 3.219 0 0 1-.338.024c-.512 0-.987-.175-1.325-.512-.413-.413-.588-1.012-.488-1.675l.438-3.075c.075-.512.413-1.188.787-1.55l5.575-5.575c.1.262.2.525.338.825.125.263.262.538.412.788.126.212.263.412.376.562.137.212.3.412.4.525.062.088.112.15.137.175.313.375.675.725.988.988.087.087.137.137.162.15.188.15.375.3.538.412.2.15.4.287.612.4.25.15.525.288.8.425.287.125.55.238.813.325l-5.6 5.563zm8.024-8.024-1.15 1.162a.388.388 0 0 1-.274.112c-.038 0-.088 0-.113-.012a7.752 7.752 0 0 1-5.288-5.287.372.372 0 0 1 .1-.375L16.15 8.3c1.9-1.9 3.713-1.863 5.575 0 .95.95 1.412 1.862 1.412 2.813-.012.9-.474 1.8-1.425 2.75z"/></svg>