<svg xmlns="http://www.w3.org/2000/svg" width="36" height="35" fill="none"><path fill="#692EDC" d="M24.11 2.917H11.89c-5.308 0-8.473 3.164-8.473 8.472v12.207c0 5.323 3.165 8.487 8.473 8.487h12.206c5.308 0 8.473-3.164 8.473-8.473V11.39c.015-5.309-3.15-8.473-8.458-8.473zm1.561 11.608-3.369 4.346a2.49 2.49 0 0 1-1.706.962 2.53 2.53 0 0 1-1.896-.525l-2.668-2.1a.32.32 0 0 0-.277-.073c-.059 0-.16.03-.248.146l-3.471 4.506c-.219.277-.54.423-.86.423-.234 0-.467-.073-.671-.233a1.092 1.092 0 0 1-.205-1.531l3.471-4.507a2.56 2.56 0 0 1 1.706-.977 2.547 2.547 0 0 1 1.896.525l2.669 2.1a.312.312 0 0 0 .277.073c.058 0 .16-.029.248-.146l3.369-4.345a1.078 1.078 0 0 1 1.531-.19c.481.394.569 1.08.204 1.546z"/></svg>